<svg width="65" height="63" viewBox="0 0 65 63" fill="none" xmlns="http://www.w3.org/2000/svg">
<path d="M32.777 20.8643C26.8786 20.8643 22.1233 25.515 22.1233 31.1845C22.1233 36.8539 26.9243 41.5047 32.777 41.5047C38.6297 41.5047 43.4308 36.8539 43.4308 31.1845C43.4308 25.515 38.6297 20.8643 32.777 20.8643ZM64.784 31.1845C64.784 26.8881 64.784 22.6803 64.5554 18.3839C64.3268 13.4232 63.1379 8.99391 59.3885 5.40621C55.6392 1.77422 51.1125 0.622613 45.9913 0.40115C41.5561 0.179687 37.2123 0.179688 32.777 0.179688C28.3418 0.179688 23.998 0.179687 19.5627 0.40115C14.4416 0.622613 9.86915 1.77422 6.16548 5.40621C2.41609 9.0382 1.22726 13.4232 0.998641 18.3839C0.770019 22.6803 0.77002 26.8881 0.77002 31.1845C0.77002 35.4809 0.770019 39.6887 0.998641 43.985C1.22726 48.9458 2.41609 53.3751 6.16548 56.9628C9.91488 60.5948 14.4416 61.7464 19.5627 61.9678C23.998 62.1893 28.3418 62.1893 32.777 62.1893C37.2123 62.1893 41.5561 62.1893 45.9913 61.9678C51.1125 61.7464 55.6849 60.5948 59.3885 56.9628C63.1379 53.3308 64.3268 48.9458 64.5554 43.985C64.8297 39.733 64.784 35.4809 64.784 31.1845ZM32.777 47.0855C23.6779 47.0855 16.362 39.9987 16.362 31.1845C16.362 22.3703 23.6779 15.2835 32.777 15.2835C41.8761 15.2835 49.192 22.3703 49.192 31.1845C49.192 39.9987 41.8761 47.0855 32.777 47.0855ZM49.8779 18.3396C47.7746 18.3396 46.0371 16.7008 46.0371 14.6191C46.0371 12.5373 47.7289 10.8985 49.8779 10.8985C52.0269 10.8985 53.7187 12.5373 53.7187 14.6191C53.7303 15.1042 53.6389 15.5865 53.4501 16.0361C53.2613 16.4856 52.9793 16.8927 52.6214 17.2323C52.2708 17.579 51.8505 17.8523 51.3864 18.0351C50.9223 18.218 50.4245 18.3066 49.9236 18.2953L49.8779 18.3396Z" fill="black"/>
</svg>
