<svg width="59" height="66" viewBox="0 0 59 66" fill="none" xmlns="http://www.w3.org/2000/svg">
<path d="M46.7952 10.2753C44.2244 7.43148 42.8075 3.78 42.8079 0H31.1843V45.1822C31.0965 47.6279 30.0314 49.9448 28.2137 51.6444C26.396 53.3439 23.9679 54.293 21.4415 54.2915C16.1 54.2915 11.6612 50.0648 11.6612 44.8178C11.6612 38.5506 17.9056 33.8502 24.338 35.7814V24.2672C11.3603 22.5911 0 32.3563 0 44.8178C0 56.9515 10.3822 65.5871 21.4039 65.5871C33.2156 65.5871 42.8079 56.2956 42.8079 44.8178V21.8988C47.5212 25.1776 53.1802 26.9368 58.9831 26.9271V15.668C58.9831 15.668 51.9111 15.996 46.7952 10.2753Z" fill="black"/>
</svg>
